<svg width="59" height="59" viewBox="0 0 59 59" fill="none" xmlns="http://www.w3.org/2000/svg">
<circle cx="29.5" cy="29.5" r="29.5" fill="black"/>
<path d="M21.4998 17.5001C27.8998 13.9 33.4999 10.5 36.4999 9.00003C38.9999 7.50003 40.1158 13.1913 37.9999 17.0001C35.8839 20.8088 29.9999 23.0001 29.9999 23.0001C29.9999 23.0001 42.9999 20.0001 43.4999 31.5001C43.6303 34.5001 41.4999 38.0001 39.9999 39.0001C38.4999 40.0001 25.4999 47.7501 23.9999 48.5001C22.2416 49.3792 21.4999 47 21.4999 44C21.4999 37 29.4999 34.5001 29.4999 34.5001C22.4999 35.5001 17.9999 33.0001 16.9999 25.5001C16.6665 23.0001 18.4999 19.1876 21.4998 17.5001Z" fill="white"/>
</svg>
