<svg width="232" height="63" viewBox="0 0 232 63" fill="none" xmlns="http://www.w3.org/2000/svg">
<circle cx="29.5" cy="31.5" r="29.5" fill="black"/>
<path d="M21.4998 19.5001C27.8998 15.9 33.4999 12.5 36.4999 11C38.9999 9.50003 40.1158 15.1913 37.9999 19.0001C35.8839 22.8088 29.9999 25.0001 29.9999 25.0001C29.9999 25.0001 42.9999 22.0001 43.4999 33.5001C43.6303 36.5001 41.4999 40.0001 39.9999 41.0001C38.4999 42.0001 25.4999 49.7501 23.9999 50.5001C22.2416 51.3792 21.4999 49 21.4999 46C21.4999 39 29.4999 36.5001 29.4999 36.5001C22.4999 37.5001 17.9999 35.0001 16.9999 27.5001C16.6665 25.0001 18.4999 21.1876 21.4998 19.5001Z" fill="white"/>
<g filter="url(#filter0_d_29_9660)">
<mask id="path-3-outside-1_29_9660" maskUnits="userSpaceOnUse" x="72" y="10" width="157" height="42" fill="black">
<rect fill="white" x="72" y="10" width="157" height="42"/>
<path d="M94.8026 23.0582C94.6548 21.5687 94.0208 20.4115 92.9006 19.5866C91.7803 18.7618 90.2599 18.3494 88.3395 18.3494C87.0346 18.3494 85.9328 18.5341 85.0341 18.9034C84.1354 19.2604 83.446 19.759 82.9659 20.3991C82.4981 21.0393 82.2642 21.7656 82.2642 22.5781C82.2396 23.2552 82.3812 23.8461 82.6889 24.3509C83.009 24.8556 83.446 25.2926 84 25.6619C84.554 26.0189 85.1941 26.3329 85.9205 26.6037C86.6468 26.8622 87.4223 27.0838 88.2472 27.2685L91.6449 28.081C93.2945 28.4503 94.8087 28.9427 96.1875 29.5582C97.5663 30.1738 98.7604 30.9309 99.7699 31.8295C100.779 32.7282 101.561 33.7869 102.115 35.0057C102.681 36.2244 102.971 37.6217 102.983 39.1974C102.971 41.5118 102.38 43.5185 101.21 45.2173C100.053 46.9039 98.3788 48.215 96.1875 49.1506C94.0085 50.0739 91.3802 50.5355 88.3026 50.5355C85.2495 50.5355 82.5904 50.0677 80.3253 49.1321C78.0724 48.1965 76.312 46.8116 75.044 44.9773C73.7884 43.1307 73.1297 40.8471 73.0682 38.1264H80.8054C80.8916 39.3944 81.2547 40.4531 81.8949 41.3026C82.5473 42.1397 83.4152 42.7737 84.4986 43.2045C85.5942 43.6231 86.8314 43.8324 88.2102 43.8324C89.5644 43.8324 90.7401 43.6354 91.7372 43.2415C92.7467 42.8475 93.5284 42.2997 94.0824 41.598C94.6364 40.8963 94.9134 40.09 94.9134 39.179C94.9134 38.3295 94.661 37.6155 94.1562 37.0369C93.6638 36.4583 92.9375 35.9659 91.9773 35.5597C91.0294 35.1534 89.866 34.7841 88.4872 34.4517L84.3693 33.4176C81.1809 32.642 78.6634 31.4295 76.8168 29.7798C74.9702 28.1302 74.053 25.9081 74.0653 23.1136C74.053 20.8239 74.6624 18.8234 75.8935 17.1122C77.1368 15.401 78.8419 14.0653 81.0085 13.1051C83.1752 12.1449 85.6373 11.6648 88.3949 11.6648C91.2017 11.6648 93.6515 12.1449 95.7443 13.1051C97.8494 14.0653 99.4867 15.401 100.656 17.1122C101.826 18.8234 102.429 20.8054 102.466 23.0582H94.8026ZM116.08 33.6023V50H108.213V12.1818H115.858V26.6406H116.191C116.831 24.9664 117.865 23.6553 119.293 22.7074C120.721 21.7472 122.512 21.267 124.667 21.267C126.636 21.267 128.354 21.6979 129.819 22.5597C131.296 23.4091 132.441 24.634 133.253 26.2344C134.078 27.8224 134.484 29.7244 134.472 31.9403V50H126.605V33.3438C126.618 31.5956 126.175 30.2353 125.276 29.2628C124.39 28.2902 123.146 27.804 121.546 27.804C120.475 27.804 119.527 28.0317 118.702 28.4872C117.89 28.9427 117.249 29.6075 116.782 30.4815C116.326 31.3433 116.092 32.3835 116.08 33.6023ZM153.478 50.554C150.61 50.554 148.129 49.9446 146.036 48.7259C143.956 47.4948 142.349 45.7836 141.217 43.5923C140.084 41.3887 139.518 38.8343 139.518 35.929C139.518 32.9991 140.084 30.4384 141.217 28.2472C142.349 26.0436 143.956 24.3324 146.036 23.1136C148.129 21.8826 150.61 21.267 153.478 21.267C156.346 21.267 158.821 21.8826 160.901 23.1136C162.994 24.3324 164.607 26.0436 165.739 28.2472C166.872 30.4384 167.438 32.9991 167.438 35.929C167.438 38.8343 166.872 41.3887 165.739 43.5923C164.607 45.7836 162.994 47.4948 160.901 48.7259C158.821 49.9446 156.346 50.554 153.478 50.554ZM153.515 44.4602C154.82 44.4602 155.909 44.0909 156.783 43.3523C157.657 42.6013 158.316 41.5795 158.759 40.2869C159.215 38.9943 159.442 37.5232 159.442 35.8736C159.442 34.224 159.215 32.7528 158.759 31.4602C158.316 30.1676 157.657 29.1458 156.783 28.3949C155.909 27.6439 154.82 27.2685 153.515 27.2685C152.198 27.2685 151.09 27.6439 150.191 28.3949C149.305 29.1458 148.634 30.1676 148.178 31.4602C147.735 32.7528 147.513 34.224 147.513 35.8736C147.513 37.5232 147.735 38.9943 148.178 40.2869C148.634 41.5795 149.305 42.6013 150.191 43.3523C151.09 44.0909 152.198 44.4602 153.515 44.4602ZM185.479 50.554C182.562 50.554 180.05 49.9631 177.945 48.7812C175.853 47.5871 174.24 45.9006 173.107 43.7216C171.975 41.5303 171.408 38.9389 171.408 35.9474C171.408 33.0298 171.975 30.4692 173.107 28.2656C174.24 26.062 175.834 24.3447 177.89 23.1136C179.958 21.8826 182.383 21.267 185.165 21.267C187.037 21.267 188.779 21.5687 190.391 22.1719C192.016 22.7628 193.432 23.6553 194.638 24.8494C195.857 26.0436 196.805 27.5455 197.482 29.3551C198.159 31.1525 198.498 33.2576 198.498 35.6705V37.831H174.548V32.956H191.093C191.093 31.8234 190.847 30.8201 190.354 29.946C189.862 29.072 189.179 28.3887 188.305 27.8963C187.443 27.3916 186.44 27.1392 185.295 27.1392C184.101 27.1392 183.042 27.4162 182.119 27.9702C181.208 28.5118 180.494 29.2443 179.977 30.1676C179.46 31.0786 179.195 32.0942 179.183 33.2145V37.8494C179.183 39.2528 179.441 40.4654 179.958 41.4872C180.487 42.509 181.232 43.2969 182.192 43.8509C183.153 44.4048 184.291 44.6818 185.609 44.6818C186.483 44.6818 187.283 44.5587 188.009 44.3125C188.736 44.0663 189.357 43.697 189.874 43.2045C190.391 42.7121 190.785 42.1089 191.056 41.3949L198.332 41.875C197.962 43.6231 197.205 45.1496 196.06 46.4545C194.928 47.7472 193.463 48.7566 191.665 49.483C189.88 50.197 187.818 50.554 185.479 50.554ZM211.719 50.5355C209.91 50.5355 208.297 50.2216 206.881 49.5938C205.466 48.9536 204.345 48.0118 203.521 46.7685C202.708 45.5128 202.302 43.9493 202.302 42.0781C202.302 40.5024 202.591 39.179 203.17 38.108C203.748 37.0369 204.536 36.1752 205.533 35.5227C206.531 34.8703 207.663 34.3778 208.931 34.0455C210.211 33.7131 211.553 33.4792 212.957 33.3438C214.606 33.1714 215.936 33.0114 216.945 32.8636C217.955 32.7036 218.687 32.4697 219.143 32.1619C219.598 31.8542 219.826 31.3987 219.826 30.7955V30.6847C219.826 29.5152 219.457 28.6103 218.718 27.9702C217.992 27.33 216.958 27.0099 215.616 27.0099C214.2 27.0099 213.074 27.3239 212.237 27.9517C211.399 28.5672 210.845 29.3428 210.575 30.2784L203.299 29.6875C203.668 27.964 204.395 26.4744 205.478 25.2188C206.561 23.9508 207.959 22.9782 209.67 22.3011C211.393 21.6117 213.388 21.267 215.653 21.267C217.228 21.267 218.737 21.4517 220.177 21.821C221.629 22.1903 222.916 22.7628 224.036 23.5384C225.169 24.3139 226.061 25.3111 226.714 26.5298C227.366 27.7363 227.692 29.1828 227.692 30.8693V50H220.232V46.0668H220.011C219.555 46.9531 218.946 47.7348 218.183 48.4119C217.419 49.0767 216.502 49.5999 215.431 49.9815C214.36 50.3509 213.123 50.5355 211.719 50.5355ZM213.972 45.1065C215.129 45.1065 216.151 44.8788 217.038 44.4233C217.924 43.9555 218.62 43.3277 219.124 42.5398C219.629 41.7519 219.881 40.8594 219.881 39.8622V36.8523C219.635 37.0123 219.297 37.16 218.866 37.2955C218.447 37.4186 217.973 37.5355 217.444 37.6463C216.915 37.7448 216.385 37.8371 215.856 37.9233C215.326 37.9972 214.846 38.0649 214.415 38.1264C213.492 38.2618 212.686 38.4773 211.996 38.7727C211.307 39.0682 210.772 39.4683 210.39 39.973C210.008 40.4654 209.817 41.081 209.817 41.8196C209.817 42.8906 210.205 43.7093 210.981 44.2756C211.769 44.8295 212.766 45.1065 213.972 45.1065Z"/>
</mask>
<path d="M94.8026 23.0582C94.6548 21.5687 94.0208 20.4115 92.9006 19.5866C91.7803 18.7618 90.2599 18.3494 88.3395 18.3494C87.0346 18.3494 85.9328 18.5341 85.0341 18.9034C84.1354 19.2604 83.446 19.759 82.9659 20.3991C82.4981 21.0393 82.2642 21.7656 82.2642 22.5781C82.2396 23.2552 82.3812 23.8461 82.6889 24.3509C83.009 24.8556 83.446 25.2926 84 25.6619C84.554 26.0189 85.1941 26.3329 85.9205 26.6037C86.6468 26.8622 87.4223 27.0838 88.2472 27.2685L91.6449 28.081C93.2945 28.4503 94.8087 28.9427 96.1875 29.5582C97.5663 30.1738 98.7604 30.9309 99.7699 31.8295C100.779 32.7282 101.561 33.7869 102.115 35.0057C102.681 36.2244 102.971 37.6217 102.983 39.1974C102.971 41.5118 102.38 43.5185 101.21 45.2173C100.053 46.9039 98.3788 48.215 96.1875 49.1506C94.0085 50.0739 91.3802 50.5355 88.3026 50.5355C85.2495 50.5355 82.5904 50.0677 80.3253 49.1321C78.0724 48.1965 76.312 46.8116 75.044 44.9773C73.7884 43.1307 73.1297 40.8471 73.0682 38.1264H80.8054C80.8916 39.3944 81.2547 40.4531 81.8949 41.3026C82.5473 42.1397 83.4152 42.7737 84.4986 43.2045C85.5942 43.6231 86.8314 43.8324 88.2102 43.8324C89.5644 43.8324 90.7401 43.6354 91.7372 43.2415C92.7467 42.8475 93.5284 42.2997 94.0824 41.598C94.6364 40.8963 94.9134 40.09 94.9134 39.179C94.9134 38.3295 94.661 37.6155 94.1562 37.0369C93.6638 36.4583 92.9375 35.9659 91.9773 35.5597C91.0294 35.1534 89.866 34.7841 88.4872 34.4517L84.3693 33.4176C81.1809 32.642 78.6634 31.4295 76.8168 29.7798C74.9702 28.1302 74.053 25.9081 74.0653 23.1136C74.053 20.8239 74.6624 18.8234 75.8935 17.1122C77.1368 15.401 78.8419 14.0653 81.0085 13.1051C83.1752 12.1449 85.6373 11.6648 88.3949 11.6648C91.2017 11.6648 93.6515 12.1449 95.7443 13.1051C97.8494 14.0653 99.4867 15.401 100.656 17.1122C101.826 18.8234 102.429 20.8054 102.466 23.0582H94.8026ZM116.08 33.6023V50H108.213V12.1818H115.858V26.6406H116.191C116.831 24.9664 117.865 23.6553 119.293 22.7074C120.721 21.7472 122.512 21.267 124.667 21.267C126.636 21.267 128.354 21.6979 129.819 22.5597C131.296 23.4091 132.441 24.634 133.253 26.2344C134.078 27.8224 134.484 29.7244 134.472 31.9403V50H126.605V33.3438C126.618 31.5956 126.175 30.2353 125.276 29.2628C124.39 28.2902 123.146 27.804 121.546 27.804C120.475 27.804 119.527 28.0317 118.702 28.4872C117.89 28.9427 117.249 29.6075 116.782 30.4815C116.326 31.3433 116.092 32.3835 116.08 33.6023ZM153.478 50.554C150.61 50.554 148.129 49.9446 146.036 48.7259C143.956 47.4948 142.349 45.7836 141.217 43.5923C140.084 41.3887 139.518 38.8343 139.518 35.929C139.518 32.9991 140.084 30.4384 141.217 28.2472C142.349 26.0436 143.956 24.3324 146.036 23.1136C148.129 21.8826 150.61 21.267 153.478 21.267C156.346 21.267 158.821 21.8826 160.901 23.1136C162.994 24.3324 164.607 26.0436 165.739 28.2472C166.872 30.4384 167.438 32.9991 167.438 35.929C167.438 38.8343 166.872 41.3887 165.739 43.5923C164.607 45.7836 162.994 47.4948 160.901 48.7259C158.821 49.9446 156.346 50.554 153.478 50.554ZM153.515 44.4602C154.82 44.4602 155.909 44.0909 156.783 43.3523C157.657 42.6013 158.316 41.5795 158.759 40.2869C159.215 38.9943 159.442 37.5232 159.442 35.8736C159.442 34.224 159.215 32.7528 158.759 31.4602C158.316 30.1676 157.657 29.1458 156.783 28.3949C155.909 27.6439 154.82 27.2685 153.515 27.2685C152.198 27.2685 151.09 27.6439 150.191 28.3949C149.305 29.1458 148.634 30.1676 148.178 31.4602C147.735 32.7528 147.513 34.224 147.513 35.8736C147.513 37.5232 147.735 38.9943 148.178 40.2869C148.634 41.5795 149.305 42.6013 150.191 43.3523C151.09 44.0909 152.198 44.4602 153.515 44.4602ZM185.479 50.554C182.562 50.554 180.05 49.9631 177.945 48.7812C175.853 47.5871 174.24 45.9006 173.107 43.7216C171.975 41.5303 171.408 38.9389 171.408 35.9474C171.408 33.0298 171.975 30.4692 173.107 28.2656C174.24 26.062 175.834 24.3447 177.89 23.1136C179.958 21.8826 182.383 21.267 185.165 21.267C187.037 21.267 188.779 21.5687 190.391 22.1719C192.016 22.7628 193.432 23.6553 194.638 24.8494C195.857 26.0436 196.805 27.5455 197.482 29.3551C198.159 31.1525 198.498 33.2576 198.498 35.6705V37.831H174.548V32.956H191.093C191.093 31.8234 190.847 30.8201 190.354 29.946C189.862 29.072 189.179 28.3887 188.305 27.8963C187.443 27.3916 186.44 27.1392 185.295 27.1392C184.101 27.1392 183.042 27.4162 182.119 27.9702C181.208 28.5118 180.494 29.2443 179.977 30.1676C179.46 31.0786 179.195 32.0942 179.183 33.2145V37.8494C179.183 39.2528 179.441 40.4654 179.958 41.4872C180.487 42.509 181.232 43.2969 182.192 43.8509C183.153 44.4048 184.291 44.6818 185.609 44.6818C186.483 44.6818 187.283 44.5587 188.009 44.3125C188.736 44.0663 189.357 43.697 189.874 43.2045C190.391 42.7121 190.785 42.1089 191.056 41.3949L198.332 41.875C197.962 43.6231 197.205 45.1496 196.06 46.4545C194.928 47.7472 193.463 48.7566 191.665 49.483C189.88 50.197 187.818 50.554 185.479 50.554ZM211.719 50.5355C209.91 50.5355 208.297 50.2216 206.881 49.5938C205.466 48.9536 204.345 48.0118 203.521 46.7685C202.708 45.5128 202.302 43.9493 202.302 42.0781C202.302 40.5024 202.591 39.179 203.17 38.108C203.748 37.0369 204.536 36.1752 205.533 35.5227C206.531 34.8703 207.663 34.3778 208.931 34.0455C210.211 33.7131 211.553 33.4792 212.957 33.3438C214.606 33.1714 215.936 33.0114 216.945 32.8636C217.955 32.7036 218.687 32.4697 219.143 32.1619C219.598 31.8542 219.826 31.3987 219.826 30.7955V30.6847C219.826 29.5152 219.457 28.6103 218.718 27.9702C217.992 27.33 216.958 27.0099 215.616 27.0099C214.2 27.0099 213.074 27.3239 212.237 27.9517C211.399 28.5672 210.845 29.3428 210.575 30.2784L203.299 29.6875C203.668 27.964 204.395 26.4744 205.478 25.2188C206.561 23.9508 207.959 22.9782 209.67 22.3011C211.393 21.6117 213.388 21.267 215.653 21.267C217.228 21.267 218.737 21.4517 220.177 21.821C221.629 22.1903 222.916 22.7628 224.036 23.5384C225.169 24.3139 226.061 25.3111 226.714 26.5298C227.366 27.7363 227.692 29.1828 227.692 30.8693V50H220.232V46.0668H220.011C219.555 46.9531 218.946 47.7348 218.183 48.4119C217.419 49.0767 216.502 49.5999 215.431 49.9815C214.36 50.3509 213.123 50.5355 211.719 50.5355ZM213.972 45.1065C215.129 45.1065 216.151 44.8788 217.038 44.4233C217.924 43.9555 218.62 43.3277 219.124 42.5398C219.629 41.7519 219.881 40.8594 219.881 39.8622V36.8523C219.635 37.0123 219.297 37.16 218.866 37.2955C218.447 37.4186 217.973 37.5355 217.444 37.6463C216.915 37.7448 216.385 37.8371 215.856 37.9233C215.326 37.9972 214.846 38.0649 214.415 38.1264C213.492 38.2618 212.686 38.4773 211.996 38.7727C211.307 39.0682 210.772 39.4683 210.39 39.973C210.008 40.4654 209.817 41.081 209.817 41.8196C209.817 42.8906 210.205 43.7093 210.981 44.2756C211.769 44.8295 212.766 45.1065 213.972 45.1065Z" fill="#152536"/>
<path d="M94.8026 23.0582L93.8074 23.1569L93.8968 24.0582H94.8026V23.0582ZM85.0341 18.9034L85.4033 19.8328L85.4142 19.8283L85.0341 18.9034ZM82.9659 20.3991L82.1658 19.7991L82.1585 19.8091L82.9659 20.3991ZM82.2642 22.5781L83.2635 22.6145L83.2642 22.5963V22.5781H82.2642ZM82.6889 24.3509L81.8351 24.8715L81.8397 24.879L81.8444 24.8864L82.6889 24.3509ZM84 25.6619L83.4453 26.494L83.4518 26.4983L83.4583 26.5025L84 25.6619ZM85.9205 26.6037L85.5711 27.5407L85.5781 27.5433L85.5851 27.5458L85.9205 26.6037ZM88.2472 27.2685L88.4797 26.2959L88.4727 26.2942L88.4656 26.2926L88.2472 27.2685ZM91.6449 28.081L91.4123 29.0535L91.4194 29.0552L91.4264 29.0568L91.6449 28.081ZM96.1875 29.5582L95.7798 30.4714L95.7798 30.4714L96.1875 29.5582ZM99.7699 31.8295L100.435 31.0826L100.435 31.0826L99.7699 31.8295ZM102.115 35.0057L101.205 35.4195L101.208 35.4271L102.115 35.0057ZM102.983 39.1974L103.983 39.2028L103.983 39.1896L102.983 39.1974ZM101.21 45.2173L100.387 44.6503L100.386 44.6516L101.21 45.2173ZM96.1875 49.1506L96.5777 50.0713L96.5802 50.0702L96.1875 49.1506ZM80.3253 49.1321L79.9417 50.0556L79.9435 50.0564L80.3253 49.1321ZM75.044 44.9773L74.2171 45.5396L74.2214 45.5459L75.044 44.9773ZM73.0682 38.1264V37.1264H72.0453L72.0684 38.149L73.0682 38.1264ZM80.8054 38.1264L81.8031 38.0586L81.7397 37.1264H80.8054V38.1264ZM81.8949 41.3026L81.0963 41.9044L81.1012 41.9109L81.1062 41.9173L81.8949 41.3026ZM84.4986 43.2045L84.129 44.1338L84.1417 44.1387L84.4986 43.2045ZM91.7372 43.2415L91.3737 42.3099L91.3698 42.3114L91.7372 43.2415ZM94.0824 41.598L94.8673 42.2177L94.8673 42.2177L94.0824 41.598ZM94.1562 37.0369L93.3947 37.6851L93.4027 37.6943L94.1562 37.0369ZM91.9773 35.5597L91.5833 36.4788L91.5876 36.4806L91.9773 35.5597ZM88.4872 34.4517L88.2436 35.4216L88.2529 35.4239L88.4872 34.4517ZM84.3693 33.4176L84.6129 32.4477L84.6057 32.4459L84.3693 33.4176ZM76.8168 29.7798L76.1505 30.5256L76.1505 30.5256L76.8168 29.7798ZM74.0653 23.1136L75.0654 23.118L75.0653 23.1083L74.0653 23.1136ZM75.8935 17.1122L75.0845 16.5244L75.0817 16.5282L75.8935 17.1122ZM95.7443 13.1051L95.3273 14.014L95.3293 14.0149L95.7443 13.1051ZM100.656 17.1122L99.8307 17.6765L99.8307 17.6765L100.656 17.1122ZM102.466 23.0582V24.0582H103.482L103.466 23.0418L102.466 23.0582ZM95.7977 22.9595C95.6244 21.2122 94.8606 19.788 93.4935 18.7814L92.3077 20.3919C93.1811 21.035 93.6853 21.9251 93.8074 23.1569L95.7977 22.9595ZM93.4935 18.7814C92.1469 17.7899 90.3938 17.3494 88.3395 17.3494V19.3494C90.126 19.3494 91.4137 19.7337 92.3077 20.3919L93.4935 18.7814ZM88.3395 17.3494C86.9463 17.3494 85.7069 17.5458 84.654 17.9785L85.4142 19.8283C86.1586 19.5224 87.1228 19.3494 88.3395 19.3494V17.3494ZM84.6649 17.9741C83.6309 18.3848 82.7776 18.9836 82.1659 19.7991L83.7659 20.9991C84.1144 20.5344 84.64 20.136 85.4033 19.8328L84.6649 17.9741ZM82.1585 19.8091C81.5623 20.625 81.2642 21.5591 81.2642 22.5781H83.2642C83.2642 21.9721 83.4339 21.4536 83.7733 20.9892L82.1585 19.8091ZM81.2649 22.5418C81.2342 23.3853 81.411 24.1759 81.8351 24.8715L83.5427 23.8302C83.3513 23.5164 83.245 23.1251 83.2635 22.6145L81.2649 22.5418ZM81.8444 24.8864C82.2474 25.5219 82.7884 26.056 83.4453 26.494L84.5547 24.8299C84.1037 24.5292 83.7706 24.1893 83.5334 23.8153L81.8444 24.8864ZM83.4583 26.5025C84.0822 26.9046 84.7888 27.249 85.5711 27.5407L86.2698 25.6667C85.5994 25.4167 85.0258 25.1333 84.5417 24.8214L83.4583 26.5025ZM85.5851 27.5458C86.3531 27.8192 87.168 28.0516 88.0287 28.2443L88.4656 26.2926C87.6767 26.116 86.9404 25.9053 86.2558 25.6616L85.5851 27.5458ZM88.0146 28.241L91.4123 29.0535L91.8775 27.1084L88.4797 26.2959L88.0146 28.241ZM91.4264 29.0568C93.0186 29.4133 94.4686 29.886 95.7798 30.4714L96.5952 28.6451C95.1488 27.9994 93.5704 27.4873 91.8634 27.1051L91.4264 29.0568ZM95.7798 30.4714C97.0757 31.0499 98.1806 31.7536 99.105 32.5765L100.435 31.0826C99.3402 30.1082 98.0569 29.2977 96.5952 28.6451L95.7798 30.4714ZM99.105 32.5765C100.011 33.3833 100.709 34.3289 101.205 35.4195L103.025 34.5919C102.413 33.245 101.547 32.0731 100.435 31.0826L99.105 32.5765ZM101.208 35.4271C101.705 36.4957 101.972 37.748 101.983 39.2053L103.983 39.1896C103.97 37.4954 103.658 35.9531 103.022 34.5843L101.208 35.4271ZM101.983 39.1921C101.972 41.3313 101.429 43.1365 100.387 44.6503L102.034 45.7844C103.331 43.9004 103.97 41.6924 103.983 39.2028L101.983 39.1921ZM100.386 44.6516C99.3526 46.1571 97.8408 47.3573 95.7948 48.2309L96.5802 50.0702C98.9168 49.0726 100.753 47.6506 102.035 45.7831L100.386 44.6516ZM95.7974 48.2298C93.7729 49.0877 91.2846 49.5355 88.3026 49.5355V51.5355C91.4758 51.5355 94.2442 51.0601 96.5776 50.0713L95.7974 48.2298ZM88.3026 49.5355C85.3494 49.5355 82.8254 49.0828 80.707 48.2078L79.9435 50.0564C82.3555 51.0526 85.1497 51.5355 88.3026 51.5355V49.5355ZM80.7088 48.2086C78.6161 47.3395 77.0152 46.0702 75.8666 44.4086L74.2214 45.5459C75.6089 47.553 77.5288 49.0535 79.9417 50.0556L80.7088 48.2086ZM75.871 44.415C74.7454 42.7597 74.1261 40.6741 74.0679 38.1038L72.0684 38.149C72.1334 41.02 72.8314 43.5017 74.2171 45.5396L75.871 44.415ZM73.0682 39.1264H80.8054V37.1264H73.0682V39.1264ZM79.8077 38.1942C79.9044 39.6175 80.3183 40.872 81.0963 41.9044L82.6935 40.7007C82.1912 40.0342 81.8787 39.1713 81.8031 38.0586L79.8077 38.1942ZM81.1062 41.9173C81.8785 42.9082 82.8972 43.6438 84.129 44.1337L84.8681 42.2753C83.9333 41.9035 83.2162 41.3712 82.6836 40.6878L81.1062 41.9173ZM84.1417 44.1387C85.3694 44.6077 86.7305 44.8324 88.2102 44.8324V42.8324C86.9324 42.8324 85.8191 42.6385 84.8554 42.2704L84.1417 44.1387ZM88.2102 44.8324C89.6584 44.8324 90.9642 44.6221 92.1046 44.1715L91.3698 42.3114C90.5159 42.6488 89.4704 42.8324 88.2102 42.8324V44.8324ZM92.1008 44.1731C93.2408 43.7282 94.1819 43.0858 94.8673 42.2177L93.2975 40.9784C92.875 41.5136 92.2526 41.9669 91.3737 42.3099L92.1008 44.1731ZM94.8673 42.2177C95.5634 41.3359 95.9134 40.3102 95.9134 39.179H93.9134C93.9134 39.8697 93.7093 40.4567 93.2975 40.9784L94.8673 42.2177ZM95.9134 39.179C95.9134 38.1155 95.5907 37.1601 94.9098 36.3796L93.4027 37.6943C93.7313 38.071 93.9134 38.5436 93.9134 39.179H95.9134ZM94.9178 36.3888C94.2939 35.6558 93.4201 35.0843 92.3669 34.6387L91.5876 36.4806C92.4549 36.8476 93.0337 37.2609 93.3947 37.685L94.9178 36.3888ZM92.3712 34.6405C91.3566 34.2057 90.1362 33.8206 88.7216 33.4796L88.2529 35.4239C89.5958 35.7476 90.7021 36.1011 91.5834 36.4788L92.3712 34.6405ZM88.7308 33.4818L84.6129 32.4477L84.1258 34.3875L88.2437 35.4216L88.7308 33.4818ZM84.6057 32.4459C81.5269 31.6971 79.1737 30.5444 77.483 29.0341L76.1505 30.5256C78.153 32.3145 80.8348 33.587 84.133 34.3893L84.6057 32.4459ZM77.483 29.0341C75.8787 27.6009 75.0541 25.6672 75.0653 23.118L73.0654 23.1092C73.052 26.1491 74.0617 28.6595 76.1505 30.5256L77.483 29.0341ZM75.0653 23.1083C75.054 21.0107 75.6084 19.2208 76.7052 17.6962L75.0817 16.5282C73.7164 18.426 73.052 20.6371 73.0654 23.119L75.0653 23.1083ZM76.7025 17.7C77.8303 16.1479 79.3882 14.917 81.4137 14.0194L80.6033 12.1909C78.2955 13.2137 76.4434 14.6542 75.0845 16.5244L76.7025 17.7ZM81.4137 14.0194C83.4336 13.1242 85.7542 12.6648 88.3949 12.6648V10.6648C85.5204 10.6648 82.9168 11.1656 80.6033 12.1909L81.4137 14.0194ZM88.3949 12.6648C91.0886 12.6648 93.3907 13.1255 95.3273 14.014L96.1613 12.1962C93.9123 11.1643 91.3148 10.6648 88.3949 10.6648V12.6648ZM95.3293 14.0149C97.2884 14.9086 98.7756 16.1328 99.8307 17.6765L101.482 16.548C100.198 14.6693 98.4104 13.2221 96.1593 12.1953L95.3293 14.0149ZM99.8307 17.6765C100.88 19.2119 101.432 20.9997 101.466 23.0746L103.466 23.0418C103.426 20.6111 102.771 18.4348 101.482 16.548L99.8307 17.6765ZM102.466 22.0582H94.8026V24.0582H102.466V22.0582ZM116.08 33.6023L115.08 33.5922V33.6023H116.08ZM116.08 50V51H117.08V50H116.08ZM108.213 50H107.213V51H108.213V50ZM108.213 12.1818V11.1818H107.213V12.1818H108.213ZM115.858 12.1818H116.858V11.1818H115.858V12.1818ZM115.858 26.6406H114.858V27.6406H115.858V26.6406ZM116.191 26.6406V27.6406H116.879L117.125 26.9978L116.191 26.6406ZM119.293 22.7074L119.846 23.5406L119.851 23.5372L119.293 22.7074ZM129.819 22.5597L129.311 23.4216L129.32 23.4266L129.819 22.5597ZM133.253 26.2344L132.361 26.6871L132.366 26.6953L133.253 26.2344ZM134.472 31.9403L133.472 31.9348V31.9403H134.472ZM134.472 50V51H135.472V50H134.472ZM126.605 50H125.605V51H126.605V50ZM126.605 33.3438L125.605 33.3367V33.3438H126.605ZM125.276 29.2628L124.537 29.9364L124.541 29.9414L125.276 29.2628ZM118.702 28.4872L118.219 27.6118L118.213 27.6149L118.702 28.4872ZM116.782 30.4815L115.9 30.0097L115.898 30.0142L116.782 30.4815ZM115.08 33.6023V50H117.08V33.6023H115.08ZM116.08 49H108.213V51H116.08V49ZM109.213 50V12.1818H107.213V50H109.213ZM108.213 13.1818H115.858V11.1818H108.213V13.1818ZM114.858 12.1818V26.6406H116.858V12.1818H114.858ZM115.858 27.6406H116.191V25.6406H115.858V27.6406ZM117.125 26.9978C117.694 25.5085 118.6 24.3678 119.846 23.5405L118.74 21.8742C117.13 22.9428 115.968 24.4242 115.257 26.2835L117.125 26.9978ZM119.851 23.5372C121.077 22.713 122.661 22.267 124.667 22.267V20.267C122.364 20.267 120.365 20.7814 118.735 21.8775L119.851 23.5372ZM124.667 22.267C126.487 22.267 128.023 22.6638 129.312 23.4216L130.326 21.6977C128.684 20.7321 126.786 20.267 124.667 20.267V22.267ZM129.32 23.4266C130.62 24.1738 131.632 25.2503 132.362 26.6871L134.145 25.7817C133.249 24.0177 131.972 22.6444 130.317 21.6928L129.32 23.4266ZM132.366 26.6953C133.1 28.109 133.484 29.8431 133.472 31.9348L135.472 31.9459C135.485 29.6057 135.056 27.5359 134.141 25.7735L132.366 26.6953ZM133.472 31.9403V50H135.472V31.9403H133.472ZM134.472 49H126.605V51H134.472V49ZM127.605 50V33.3438H125.605V50H127.605ZM127.605 33.3508C127.619 31.4322 127.131 29.7966 126.01 28.5841L124.541 29.9414C125.218 30.674 125.617 31.7591 125.605 33.3367L127.605 33.3508ZM126.015 28.5892C124.899 27.3646 123.362 26.804 121.546 26.804V28.804C122.931 28.804 123.88 29.2159 124.537 29.9364L126.015 28.5892ZM121.546 26.804C120.329 26.804 119.211 27.064 118.219 27.6118L119.185 29.3626C119.843 28.9995 120.62 28.804 121.546 28.804V26.804ZM118.213 27.6149C117.223 28.1698 116.452 28.9787 115.9 30.0097L117.663 30.9534C118.047 30.2362 118.556 29.7156 119.191 29.3595L118.213 27.6149ZM115.898 30.0142C115.351 31.0479 115.093 32.2531 115.08 33.5922L117.08 33.6124C117.091 32.514 117.301 31.6387 117.666 30.9488L115.898 30.0142ZM146.036 48.7259L145.527 49.5865L145.533 49.59L146.036 48.7259ZM141.217 43.5923L140.327 44.0495L140.328 44.0515L141.217 43.5923ZM141.217 28.2472L142.105 28.7063L142.106 28.7043L141.217 28.2472ZM146.036 23.1136L146.542 23.9765L146.543 23.9756L146.036 23.1136ZM160.901 23.1136L160.392 23.9743L160.398 23.9778L160.901 23.1136ZM165.739 28.2472L164.85 28.7043L164.851 28.7063L165.739 28.2472ZM165.739 43.5923L166.628 44.0515L166.629 44.0495L165.739 43.5923ZM160.901 48.7259L161.407 49.5887L161.408 49.5878L160.901 48.7259ZM156.783 43.3523L157.429 44.1161L157.435 44.1108L156.783 43.3523ZM158.759 40.2869L157.816 39.9546L157.813 39.9626L158.759 40.2869ZM158.759 31.4602L157.813 31.7846L157.816 31.7926L158.759 31.4602ZM150.191 28.3949L149.55 27.6275L149.545 27.6319L150.191 28.3949ZM148.178 31.4602L147.235 31.1279L147.232 31.1359L148.178 31.4602ZM148.178 40.2869L147.232 40.6113L147.235 40.6193L148.178 40.2869ZM150.191 43.3523L149.545 44.1153L149.55 44.1201L149.556 44.1248L150.191 43.3523ZM153.478 49.554C150.754 49.554 148.453 48.9763 146.539 47.8617L145.533 49.59C147.805 50.9129 150.466 51.554 153.478 51.554V49.554ZM146.545 47.8652C144.63 46.7318 143.153 45.1613 142.105 43.1332L140.328 44.0515C141.545 46.4059 143.281 48.2578 145.527 49.5865L146.545 47.8652ZM142.106 43.1352C141.058 41.0955 140.518 38.7027 140.518 35.929H138.518C138.518 38.9659 139.11 41.6819 140.327 44.0495L142.106 43.1352ZM140.518 35.929C140.518 33.129 141.058 30.7313 142.105 28.7063L140.328 27.788C139.11 30.1456 138.518 32.8691 138.518 35.929H140.518ZM142.106 28.7043C143.154 26.6647 144.63 25.0965 146.542 23.9765L145.531 22.2508C143.282 23.5683 141.544 25.4224 140.327 27.79L142.106 28.7043ZM146.543 23.9756C148.457 22.8501 150.755 22.267 153.478 22.267V20.267C150.464 20.267 147.802 20.915 145.529 22.2517L146.543 23.9756ZM153.478 22.267C156.201 22.267 158.492 22.8502 160.392 23.9743L161.411 22.253C159.149 20.915 156.492 20.267 153.478 20.267V22.267ZM160.398 23.9778C162.322 25.0982 163.802 26.6663 164.85 28.7043L166.629 27.79C165.411 25.4208 163.666 23.5666 161.405 22.2495L160.398 23.9778ZM164.851 28.7063C165.898 30.7313 166.438 33.129 166.438 35.929H168.438C168.438 32.8691 167.846 30.1456 166.628 27.788L164.851 28.7063ZM166.438 35.929C166.438 38.7027 165.898 41.0955 164.85 43.1352L166.629 44.0495C167.846 41.6819 168.438 38.9659 168.438 35.929H166.438ZM164.851 43.1332C163.804 45.1598 162.322 46.7301 160.394 47.8639L161.408 49.5878C163.666 48.2595 165.41 46.4075 166.628 44.0515L164.851 43.1332ZM160.396 47.863C158.495 48.9762 156.203 49.554 153.478 49.554V51.554C156.49 51.554 159.146 50.913 161.407 49.5887L160.396 47.863ZM153.515 45.4602C155.021 45.4602 156.349 45.0285 157.429 44.1161L156.138 42.5885C155.47 43.1533 154.619 43.4602 153.515 43.4602V45.4602ZM157.435 44.1108C158.467 43.2239 159.215 42.0407 159.705 40.6113L157.813 39.9626C157.417 41.1184 156.848 41.9787 156.132 42.5938L157.435 44.1108ZM159.702 40.6193C160.202 39.2007 160.442 37.614 160.442 35.8736H158.442C158.442 37.4324 158.227 38.788 157.816 39.9546L159.702 40.6193ZM160.442 35.8736C160.442 34.1331 160.202 32.5465 159.702 31.1279L157.816 31.7926C158.227 32.9592 158.442 34.3148 158.442 35.8736H160.442ZM159.705 31.1359C159.215 29.7064 158.467 28.5232 157.435 27.6364L156.132 29.1534C156.848 29.7685 157.417 30.6288 157.813 31.7846L159.705 31.1359ZM157.435 27.6364C156.356 26.709 155.025 26.2685 153.515 26.2685V28.2685C154.614 28.2685 155.463 28.5789 156.132 29.1534L157.435 27.6364ZM153.515 26.2685C151.994 26.2685 150.651 26.7075 149.55 27.6275L150.832 29.1622C151.529 28.5804 152.401 28.2685 153.515 28.2685V26.2685ZM149.545 27.6319C148.5 28.5167 147.739 29.6982 147.235 31.1279L149.121 31.7926C149.529 30.637 150.109 29.775 150.837 29.1579L149.545 27.6319ZM147.232 31.1359C146.747 32.552 146.513 34.1357 146.513 35.8736H148.513C148.513 34.3122 148.723 32.9537 149.124 31.7846L147.232 31.1359ZM146.513 35.8736C146.513 37.6114 146.747 39.1952 147.232 40.6113L149.124 39.9626C148.723 38.7934 148.513 37.435 148.513 35.8736H146.513ZM147.235 40.6193C147.739 42.0489 148.5 43.2305 149.545 44.1153L150.837 42.5893C150.109 41.9721 149.529 41.1102 149.121 39.9546L147.235 40.6193ZM149.556 44.1248C150.657 45.0299 151.999 45.4602 153.515 45.4602V43.4602C152.397 43.4602 151.522 43.1519 150.826 42.5797L149.556 44.1248ZM177.945 48.7812L177.45 49.6498L177.456 49.6532L177.945 48.7812ZM173.107 43.7216L172.219 44.1807L172.22 44.1828L173.107 43.7216ZM173.107 28.2656L172.218 27.8085L172.218 27.8085L173.107 28.2656ZM177.89 23.1136L177.378 22.2543L177.376 22.2557L177.89 23.1136ZM190.391 22.1719L190.041 23.1085L190.05 23.1117L190.391 22.1719ZM194.638 24.8494L193.935 25.5602L193.939 25.5637L194.638 24.8494ZM197.482 29.3551L196.546 29.7055L196.546 29.7076L197.482 29.3551ZM198.498 37.831V38.831H199.498V37.831H198.498ZM174.548 37.831H173.548V38.831H174.548V37.831ZM174.548 32.956V31.956H173.548V32.956H174.548ZM191.093 32.956V33.956H192.093V32.956H191.093ZM190.354 29.946L189.483 30.4369L189.483 30.4369L190.354 29.946ZM188.305 27.8963L187.799 28.7592L187.807 28.7634L187.814 28.7676L188.305 27.8963ZM182.119 27.9702L182.63 28.8297L182.633 28.8277L182.119 27.9702ZM179.977 30.1676L180.846 30.6612L180.849 30.6562L179.977 30.1676ZM179.183 33.2145L178.183 33.2035V33.2145H179.183ZM179.958 41.4872L179.066 41.9387L179.07 41.9472L179.958 41.4872ZM188.009 44.3125L187.688 43.3654L187.688 43.3654L188.009 44.3125ZM189.874 43.2045L189.185 42.4804L189.185 42.4804L189.874 43.2045ZM191.056 41.3949L191.122 40.3971L190.384 40.3483L190.121 41.0402L191.056 41.3949ZM198.332 41.875L199.31 42.0817L199.549 40.9531L198.398 40.8772L198.332 41.875ZM196.06 46.4545L195.309 45.795L195.308 45.7955L196.06 46.4545ZM191.665 49.483L192.037 50.4114L192.04 50.4101L191.665 49.483ZM185.479 49.554C182.698 49.554 180.362 48.9913 178.435 47.9093L177.456 49.6532C179.739 50.9349 182.426 51.554 185.479 51.554V49.554ZM178.441 47.9127C176.518 46.8158 175.04 45.2722 173.995 43.2604L172.22 44.1828C173.439 46.5289 175.187 48.3585 177.45 49.6498L178.441 47.9127ZM173.996 43.2624C172.95 41.2402 172.408 38.8128 172.408 35.9474H170.408C170.408 39.0651 170.999 41.8204 172.219 44.1807L173.996 43.2624ZM172.408 35.9474C172.408 33.1607 172.949 30.7618 173.997 28.7227L172.218 27.8085C171.001 30.1766 170.408 32.899 170.408 35.9474H172.408ZM173.997 28.7227C175.047 26.6793 176.514 25.1034 178.404 23.9716L177.376 22.2557C175.154 23.586 173.433 25.4448 172.218 27.8085L173.997 28.7227ZM178.401 23.9729C180.292 22.8475 182.535 22.267 185.165 22.267V20.267C182.232 20.267 179.624 20.9176 177.378 22.2543L178.401 23.9729ZM185.165 22.267C186.927 22.267 188.55 22.5507 190.041 23.1085L190.742 21.2353C189.008 20.5866 187.146 20.267 185.165 20.267V22.267ZM190.05 23.1117C191.541 23.6542 192.833 24.4695 193.935 25.5602L195.342 24.1387C194.031 22.8411 192.491 21.8714 190.733 21.2321L190.05 23.1117ZM193.939 25.5637C195.04 26.6426 195.913 28.0148 196.546 29.7055L198.419 29.0047C197.697 27.0761 196.675 25.4446 195.338 24.1351L193.939 25.5637ZM196.546 29.7076C197.172 31.3676 197.498 33.3484 197.498 35.6705H199.498C199.498 33.1668 199.147 30.9374 198.418 29.0026L196.546 29.7076ZM197.498 35.6705V37.831H199.498V35.6705H197.498ZM198.498 36.831H174.548V38.831H198.498V36.831ZM175.548 37.831V32.956H173.548V37.831H175.548ZM174.548 33.956H191.093V31.956H174.548V33.956ZM192.093 32.956C192.093 31.674 191.813 30.4976 191.226 29.4552L189.483 30.4369C189.881 31.1426 190.093 31.9728 190.093 32.956H192.093ZM191.226 29.4552C190.644 28.422 189.829 27.6072 188.796 27.0251L187.814 28.7676C188.529 29.1703 189.08 29.722 189.483 30.4369L191.226 29.4552ZM188.81 27.0334C187.774 26.4264 186.591 26.1392 185.295 26.1392V28.1392C186.288 28.1392 187.112 28.3567 187.799 28.7592L188.81 27.0334ZM185.295 26.1392C183.94 26.1392 182.699 26.4555 181.604 27.1127L182.633 28.8277C183.384 28.3769 184.262 28.1392 185.295 28.1392V26.1392ZM181.608 27.1106C180.546 27.7419 179.707 28.6022 179.104 29.679L180.849 30.6562C181.28 29.8864 181.869 29.2818 182.63 28.8297L181.608 27.1106ZM179.107 29.674C178.5 30.7425 178.197 31.9261 178.183 33.2035L180.182 33.2255C180.193 32.2624 180.419 31.4147 180.846 30.6612L179.107 29.674ZM178.183 33.2145V37.8494H180.183V33.2145H178.183ZM178.183 37.8494C178.183 39.3749 178.464 40.7489 179.066 41.9387L180.85 41.0357C180.418 40.182 180.183 39.1308 180.183 37.8494H178.183ZM179.07 41.9472C179.684 43.1319 180.56 44.0638 181.693 44.717L182.692 42.9847C181.904 42.53 181.291 41.8861 180.846 41.0272L179.07 41.9472ZM181.693 44.717C182.831 45.3739 184.149 45.6818 185.609 45.6818V43.6818C184.434 43.6818 183.474 43.4358 182.692 42.9847L181.693 44.717ZM185.609 45.6818C186.577 45.6818 187.487 45.5453 188.33 45.2596L187.688 43.3654C187.079 43.5721 186.389 43.6818 185.609 43.6818V45.6818ZM188.33 45.2596C189.184 44.9702 189.934 44.5286 190.564 43.9287L189.185 42.4804C188.78 42.8653 188.287 43.1624 187.688 43.3654L188.33 45.2596ZM190.564 43.9287C191.197 43.3259 191.671 42.5936 191.991 41.7495L190.121 41.0402C189.9 41.6242 189.586 42.0983 189.185 42.4804L190.564 43.9287ZM190.99 42.3927L198.266 42.8728L198.398 40.8772L191.122 40.3971L190.99 42.3927ZM197.353 41.6683C197.018 43.2536 196.337 44.623 195.309 45.795L196.812 47.1141C198.074 45.6763 198.906 43.9926 199.31 42.0817L197.353 41.6683ZM195.308 45.7955C194.291 46.9562 192.962 47.8805 191.291 48.5558L192.04 50.4101C193.964 49.6327 195.564 48.5382 196.813 47.1136L195.308 45.7955ZM191.294 48.5545C189.65 49.2122 187.718 49.554 185.479 49.554V51.554C187.919 51.554 190.111 51.1817 192.037 50.4114L191.294 48.5545ZM206.881 49.5938L206.469 50.505L206.476 50.5079L206.881 49.5938ZM203.521 46.7685L202.681 47.3118L202.687 47.3213L203.521 46.7685ZM203.17 38.108L202.29 37.6326L202.29 37.6326L203.17 38.108ZM205.533 35.5227L204.986 34.6859L204.986 34.6859L205.533 35.5227ZM208.931 34.0455L208.68 33.0775L208.678 33.0781L208.931 34.0455ZM212.957 33.3438L213.053 34.3392L213.061 34.3383L212.957 33.3438ZM216.945 32.8636L217.09 33.8532L217.102 33.8513L216.945 32.8636ZM219.143 32.1619L218.583 31.3333L218.583 31.3333L219.143 32.1619ZM218.718 27.9702L218.057 28.7204L218.063 28.7259L218.718 27.9702ZM212.237 27.9517L212.829 28.7574L212.837 28.7517L212.237 27.9517ZM210.575 30.2784L210.494 31.2751L211.308 31.3413L211.535 30.5565L210.575 30.2784ZM203.299 29.6875L202.321 29.478L202.082 30.592L203.218 30.6842L203.299 29.6875ZM205.478 25.2188L206.235 25.872L206.238 25.8683L205.478 25.2188ZM209.67 22.3011L210.038 23.231L210.041 23.2296L209.67 22.3011ZM220.177 21.821L219.928 22.7897L219.93 22.7902L220.177 21.821ZM224.036 23.5384L223.467 24.3606L223.471 24.3634L224.036 23.5384ZM226.714 26.5298L225.832 27.0018L225.834 27.0055L226.714 26.5298ZM227.692 50V51H228.692V50H227.692ZM220.232 50H219.232V51H220.232V50ZM220.232 46.0668H221.232V45.0668H220.232V46.0668ZM220.011 46.0668V45.0668H219.4L219.121 45.6097L220.011 46.0668ZM218.183 48.4119L218.839 49.166L218.846 49.16L218.183 48.4119ZM215.431 49.9815L215.757 50.927L215.767 50.9235L215.431 49.9815ZM217.038 44.4233L217.495 45.3128L217.504 45.3077L217.038 44.4233ZM219.124 42.5398L218.282 42.0003L218.282 42.0003L219.124 42.5398ZM219.881 36.8523H220.881V35.0096L219.336 36.0138L219.881 36.8523ZM218.866 37.2955L219.148 38.2548L219.157 38.2522L219.166 38.2494L218.866 37.2955ZM217.444 37.6463L217.627 38.6294L217.638 38.6274L217.649 38.6251L217.444 37.6463ZM215.856 37.9233L215.994 38.9137L216.005 38.9121L216.017 38.9103L215.856 37.9233ZM214.415 38.1264L214.274 37.1365L214.27 37.137L214.415 38.1264ZM211.996 38.7727L212.39 39.6919L212.39 39.6919L211.996 38.7727ZM210.39 39.973L211.18 40.5856L211.188 40.5761L210.39 39.973ZM210.981 44.2756L210.391 45.0832L210.398 45.0885L210.406 45.0936L210.981 44.2756ZM211.719 49.5355C210.026 49.5355 208.555 49.2421 207.287 48.6796L206.476 50.5079C208.039 51.2011 209.793 51.5355 211.719 51.5355V49.5355ZM207.293 48.6826C206.042 48.1165 205.07 47.2957 204.354 46.2157L202.687 47.3213C203.62 48.728 204.89 49.7907 206.469 50.5049L207.293 48.6826ZM204.36 46.2252C203.676 45.1677 203.302 43.8049 203.302 42.0781H201.302C201.302 44.0938 201.74 45.8579 202.681 47.3117L204.36 46.2252ZM203.302 42.0781C203.302 40.6209 203.57 39.4715 204.05 38.5833L202.29 37.6326C201.613 38.8864 201.302 40.3839 201.302 42.0781H203.302ZM204.05 38.5833C204.551 37.6552 205.226 36.9189 206.081 36.3595L204.986 34.6859C203.847 35.4314 202.946 36.4187 202.29 37.6326L204.05 38.5833ZM206.081 36.3595C206.979 35.7717 208.011 35.3205 209.185 35.0128L208.678 33.0781C207.316 33.4352 206.082 33.9688 204.986 34.6859L206.081 36.3595ZM209.182 35.0134C210.409 34.695 211.698 34.4698 213.053 34.3391L212.861 32.3484C211.408 32.4885 210.014 32.7311 208.68 33.0775L209.182 35.0134ZM213.061 34.3383C214.717 34.1653 216.061 34.0036 217.09 33.8531L216.801 31.8742C215.81 32.0191 214.496 32.1775 212.853 32.3492L213.061 34.3383ZM217.102 33.8513C218.153 33.6847 219.062 33.4234 219.703 32.9905L218.583 31.3333C218.313 31.516 217.757 31.7225 216.789 31.876L217.102 33.8513ZM219.703 32.9905C220.463 32.4765 220.826 31.6928 220.826 30.7955H218.826C218.826 31.1046 218.733 31.2319 218.583 31.3333L219.703 32.9905ZM220.826 30.7955V30.6847H218.826V30.7955H220.826ZM220.826 30.6847C220.826 29.2876 220.374 28.082 219.373 27.2145L218.063 28.7259C218.539 29.1386 218.826 29.7427 218.826 30.6847H220.826ZM219.379 27.22C218.41 26.366 217.107 26.0099 215.616 26.0099V28.0099C216.808 28.0099 217.573 28.294 218.057 28.7204L219.379 27.22ZM215.616 26.0099C214.059 26.0099 212.699 26.3551 211.637 27.1517L212.837 28.7517C213.449 28.2926 214.341 28.0099 215.616 28.0099V26.0099ZM211.644 27.1461C210.642 27.8828 209.95 28.8385 209.614 30.0004L211.535 30.5565C211.74 29.8471 212.157 29.2517 212.829 28.7574L211.644 27.1461ZM210.656 29.2817L203.38 28.6908L203.218 30.6842L210.494 31.2751L210.656 29.2817ZM204.277 29.897C204.613 28.327 205.268 26.9926 206.235 25.872L204.721 24.5655C203.521 25.9562 202.723 27.6011 202.321 29.478L204.277 29.897ZM206.238 25.8683C207.205 24.7368 208.462 23.8544 210.038 23.231L209.302 21.3713C207.455 22.1021 205.918 23.1647 204.718 24.5692L206.238 25.8683ZM210.041 23.2296C211.624 22.5966 213.488 22.267 215.653 22.267V20.267C213.288 20.267 211.163 20.6269 209.298 21.3727L210.041 23.2296ZM215.653 22.267C217.15 22.267 218.574 22.4424 219.928 22.7897L220.425 20.8524C218.899 20.461 217.307 20.267 215.653 20.267V22.267ZM219.93 22.7902C221.279 23.1331 222.454 23.6593 223.467 24.3605L224.605 22.7162C223.378 21.8663 221.98 21.2476 220.423 20.8519L219.93 22.7902ZM223.471 24.3634C224.47 25.0477 225.255 25.9234 225.832 27.0018L227.595 26.0579C226.868 24.6988 225.867 23.5801 224.601 22.7133L223.471 24.3634ZM225.834 27.0055C226.391 28.036 226.692 29.3112 226.692 30.8693H228.692C228.692 29.0543 228.341 27.4366 227.593 26.0541L225.834 27.0055ZM226.692 30.8693V50H228.692V30.8693H226.692ZM227.692 49H220.232V51H227.692V49ZM221.232 50V46.0668H219.232V50H221.232ZM220.232 45.0668H220.011V47.0668H220.232V45.0668ZM219.121 45.6097C218.724 46.3833 218.192 47.067 217.519 47.6639L218.846 49.16C219.7 48.4027 220.387 47.523 220.9 46.5238L219.121 45.6097ZM217.526 47.6578C216.868 48.2309 216.063 48.6948 215.095 49.0395L215.767 50.9235C216.941 50.5051 217.971 49.9225 218.839 49.166L217.526 47.6578ZM215.105 49.0362C214.161 49.3619 213.037 49.5355 211.719 49.5355V51.5355C213.208 51.5355 214.56 51.3398 215.757 50.9269L215.105 49.0362ZM213.972 46.1065C215.263 46.1065 216.446 45.8518 217.495 45.3127L216.581 43.5339C215.857 43.9058 214.996 44.1065 213.972 44.1065V46.1065ZM217.504 45.3077C218.532 44.7652 219.362 44.0229 219.966 43.0792L218.282 42.0003C217.877 42.6324 217.316 43.1458 216.571 43.5389L217.504 45.3077ZM219.966 43.0792C220.581 42.1196 220.881 41.0374 220.881 39.8622H218.881C218.881 40.6813 218.677 41.3842 218.282 42.0003L219.966 43.0792ZM220.881 39.8622V36.8523H218.881V39.8622H220.881ZM219.336 36.0138C219.196 36.1054 218.951 36.2203 218.566 36.3415L219.166 38.2494C219.642 38.0998 220.075 37.9192 220.426 37.6907L219.336 36.0138ZM218.584 36.3361C218.196 36.4502 217.748 36.5609 217.239 36.6675L217.649 38.6251C218.198 38.5101 218.699 38.3869 219.148 38.2548L218.584 36.3361ZM217.261 36.6632C216.739 36.7603 216.217 36.8513 215.695 36.9363L216.017 38.9103C216.553 38.8229 217.09 38.7293 217.627 38.6294L217.261 36.6632ZM215.718 36.9329C215.187 37.0069 214.706 37.0747 214.274 37.1365L214.557 39.1164C214.986 39.055 215.466 38.9874 215.994 38.9137L215.718 36.9329ZM214.27 37.137C213.281 37.2821 212.388 37.5169 211.603 37.8536L212.39 39.6919C212.984 39.4376 213.703 39.2416 214.561 39.1158L214.27 37.137ZM211.603 37.8536C210.783 38.2048 210.097 38.7028 209.592 39.3699L211.188 40.5761C211.446 40.2337 211.831 39.9316 212.39 39.6919L211.603 37.8536ZM209.6 39.3604C209.058 40.0591 208.817 40.9019 208.817 41.8196H210.817C210.817 41.2601 210.959 40.8717 211.18 40.5856L209.6 39.3604ZM208.817 41.8196C208.817 43.1674 209.325 44.3049 210.391 45.0832L211.571 43.4679C211.085 43.1137 210.817 42.6139 210.817 41.8196H208.817ZM210.406 45.0936C211.4 45.7929 212.612 46.1065 213.972 46.1065V44.1065C212.919 44.1065 212.137 43.8662 211.556 43.4575L210.406 45.0936Z" fill="black" mask="url(#path-3-outside-1_29_9660)"/>
</g>
<defs>
<filter id="filter0_d_29_9660" x="69.0682" y="11.6648" width="162.624" height="46.8892" filterUnits="userSpaceOnUse" color-interpolation-filters="sRGB">
<feFlood flood-opacity="0" result="BackgroundImageFix"/>
<feColorMatrix in="SourceAlpha" type="matrix" values="0 0 0 0 0 0 0 0 0 0 0 0 0 0 0 0 0 0 127 0" result="hardAlpha"/>
<feOffset dy="4"/>
<feGaussianBlur stdDeviation="2"/>
<feComposite in2="hardAlpha" operator="out"/>
<feColorMatrix type="matrix" values="0 0 0 0 0 0 0 0 0 0 0 0 0 0 0 0 0 0 0.25 0"/>
<feBlend mode="normal" in2="BackgroundImageFix" result="effect1_dropShadow_29_9660"/>
<feBlend mode="normal" in="SourceGraphic" in2="effect1_dropShadow_29_9660" result="shape"/>
</filter>
</defs>
</svg>
